<?xml version="1.0" encoding="UTF-8"?> <svg xmlns="http://www.w3.org/2000/svg" width="266" height="53" viewBox="0 0 266 53" fill="none"> <path d="M24.0001 2.40001C21.6715 2.39956 19.3552 2.73807 17.1241 3.4049L14.4001 0H10.8018L13.4608 4.83548C9.42336 6.80944 6.02114 9.87721 3.64141 13.6896C1.26167 17.502 0 21.906 0 26.4001C0 30.8943 1.26167 35.2982 3.64141 39.1106C6.02114 42.923 9.42336 45.9908 13.4608 47.9648L10.8018 52.8003H14.4001L17.1241 49.3954C20.4251 50.3824 23.8999 50.647 27.3123 50.1715C30.7248 49.6959 33.9948 48.4911 36.9001 46.6392C39.8055 44.7872 42.278 42.3314 44.1497 39.4388C46.0214 36.5461 47.2484 33.2843 47.7472 29.8752C48.246 26.4661 48.0049 22.9896 47.0404 19.6819C46.0759 16.3743 44.4106 13.3131 42.1576 10.7064C39.9046 8.09966 37.1168 6.0086 33.9836 4.57531C30.8505 3.14203 27.4455 2.40011 24.0001 2.40001V2.40001ZM24.0001 4.18346C34.233 4.18346 42.6837 12.55 44.0167 23.4001H33.1202L18.4351 5.04374C20.2354 4.47477 22.1121 4.18465 24.0001 4.18346V4.18346ZM14.5278 6.77547L23.6701 23.4001H3.98354C4.87064 16.1802 8.90776 10.062 14.5278 6.77553V6.77547ZM3.98354 29.4001H23.6701L14.5278 46.0246C8.90776 42.7382 4.87064 36.6201 3.98354 29.4001ZM24.0001 48.6166C22.1121 48.6154 20.2354 48.3253 18.4351 47.7563L33.1202 29.4001H44.0167C42.6837 40.2503 34.233 48.6166 24.0001 48.6166Z" fill="white"></path> <path d="M66 14.5388H69.2851V36.7985H81.2766V38.3426H66V14.5388Z" fill="white"></path> <path d="M102 14.5388V16.0829H89.4515V24.5915H97.8526V26.1356H89.4515V36.7988H102V38.3429H86.1665V14.5388H102Z" fill="white"></path> <path d="M117.868 14.0002L129.069 38.3423H125.641L122.015 30.4078H111.477L107.762 38.3423H105.823L117.204 14.0002H117.868ZM112.213 28.8639H121.279L116.719 19.1882L112.213 28.8639Z" fill="white"></path> <path d="M133.816 14.5388H141.391C143.322 14.5233 145.246 14.7554 147.118 15.2296C148.763 15.6368 150.312 16.3628 151.677 17.3665C152.954 18.3253 153.985 19.5742 154.684 21.0099C155.444 22.6411 155.816 24.4261 155.77 26.2251C155.781 27.8406 155.483 29.4432 154.891 30.9463C154.315 32.4023 153.43 33.7159 152.297 34.7965C151.081 35.9377 149.645 36.8203 148.078 37.3908C146.24 38.0542 144.296 38.3767 142.343 38.3423H133.816V14.5388ZM137.101 36.601H141.714C143.054 36.6115 144.384 36.3867 145.646 35.9368C146.84 35.5102 147.932 34.8375 148.85 33.9621C149.79 33.0521 150.527 31.954 151.013 30.7395C151.565 29.3308 151.833 27.8273 151.803 26.3148C151.819 24.9298 151.566 23.5549 151.058 22.2665C150.59 21.0768 149.88 19.9973 148.973 19.0965C148.067 18.1958 146.982 17.4934 145.789 17.0341C144.496 16.5324 143.119 16.2825 141.732 16.298H137.101V36.601Z" fill="white"></path> <path d="M161.832 35.111C162.091 35.1104 162.348 35.1622 162.586 35.2633C162.817 35.3603 163.03 35.4972 163.214 35.6677C163.395 35.8385 163.54 36.0443 163.638 36.2727C163.737 36.5011 163.788 36.7472 163.789 36.996C163.792 37.2553 163.74 37.5123 163.637 37.75C163.431 38.2094 163.054 38.5702 162.586 38.7553C162.346 38.8509 162.09 38.8997 161.832 38.8989C161.568 38.901 161.306 38.8522 161.06 38.7553C160.826 38.6629 160.613 38.5255 160.432 38.3509C160.253 38.1798 160.11 37.9757 160.01 37.7499C159.909 37.516 159.857 37.2639 159.857 37.0092C159.857 36.7545 159.909 36.5024 160.01 36.2686C160.108 36.0413 160.251 35.8367 160.432 35.6675C160.616 35.4969 160.828 35.36 161.06 35.2631C161.304 35.1607 161.567 35.1089 161.832 35.111V35.111Z" fill="white"></path> <path d="M180.382 14.0002L191.584 38.3423H188.155L184.529 30.4078H173.992L170.276 38.3423H168.337L179.718 14.0002H180.382ZM174.728 28.8639H183.793L179.233 19.1882L174.728 28.8639Z" fill="white"></path> <path d="M212.163 14.5388V16.0829H199.615V24.5915H208.016V26.1356H199.615V36.7988H212.163V38.3429H196.33V14.5388H212.163Z" fill="white"></path> <path d="M217.581 14.5388H225.48C226.695 14.519 227.907 14.6733 229.079 14.997C230.015 15.2524 230.894 15.6883 231.664 16.2801C232.33 16.8028 232.862 17.4764 233.217 18.2454C233.568 19.0268 233.746 19.8753 233.737 20.732C233.743 21.4547 233.606 22.1714 233.334 22.8409C233.063 23.4955 232.67 24.0926 232.175 24.6002C231.647 25.1406 231.035 25.5923 230.362 25.9379C229.613 26.325 228.816 26.6146 227.993 26.7996L236.663 38.3423H232.588L224.313 27.1586H220.866V38.3423H217.581L217.581 14.5388ZM220.866 25.956H223.541C224.43 25.9641 225.316 25.8431 226.17 25.597C226.922 25.3853 227.63 25.0421 228.262 24.5831C228.833 24.1631 229.303 23.62 229.636 22.994C229.971 22.3454 230.14 21.6238 230.129 20.8937C230.137 20.2152 230.002 19.5425 229.734 18.9191C229.479 18.3326 229.099 17.8087 228.621 17.3839C228.121 16.9471 227.542 16.6092 226.916 16.388C226.218 16.1422 225.483 16.0206 224.744 16.0289H220.866V25.956Z" fill="white"></path> <path d="M252.032 38.8988C249.528 38.9253 247.073 38.2085 244.976 36.8391C242.88 35.4698 241.237 33.5093 240.256 31.206C239.593 29.6609 239.257 27.9956 239.268 26.3145C239.257 24.6594 239.593 23.0204 240.256 21.5036C240.895 20.0347 241.816 18.7052 242.966 17.5902C244.136 16.4638 245.509 15.5713 247.014 14.9607C250.239 13.6798 253.832 13.6798 257.058 14.9607C258.566 15.5698 259.943 16.4624 261.115 17.5902C262.265 18.7054 263.186 20.0348 263.825 21.5036C264.488 23.0205 264.824 24.6595 264.813 26.3145C264.824 27.9956 264.488 29.6607 263.826 31.206C262.836 33.5074 261.189 35.4652 259.091 36.8338C256.993 38.2023 254.537 38.9206 252.032 38.8985V38.8988ZM252.032 37.714C253.342 37.7401 254.638 37.4476 255.81 36.8616C256.902 36.2956 257.847 35.4807 258.566 34.4827C259.343 33.3921 259.914 32.1695 260.253 30.8745C260.649 29.3873 260.842 27.8536 260.828 26.3148C260.843 24.7937 260.65 23.2777 260.253 21.8091C259.915 20.5385 259.343 19.3421 258.566 18.2813C257.841 17.309 256.897 16.5216 255.81 15.9836C254.632 15.4207 253.338 15.1412 252.032 15.1674C250.717 15.1407 249.414 15.4201 248.226 15.9836C247.137 16.5185 246.192 17.3064 245.47 18.2813C244.699 19.3431 244.133 20.5395 243.801 21.8091C243.41 23.2786 243.22 24.7943 243.236 26.3148C243.221 27.8531 243.411 29.3865 243.801 30.8745C244.134 32.1686 244.7 33.3912 245.47 34.4827C246.187 35.4832 247.132 36.2987 248.226 36.8616C249.407 37.4483 250.713 37.7407 252.032 37.714Z" fill="white"></path> </svg> 